<svg xmlns="http://www.w3.org/2000/svg" width="1280" height="400" viewBox="0 0 1280 400">
  <defs>
  <filter id="glow" x="-50%" y="-50%" width="200%" height="200%"><feGaussianBlur stdDeviation="6" result="b"/>
    <feMerge><feMergeNode in="b"/><feMergeNode in="SourceGraphic"/></feMerge></filter>
  <filter id="soft" x="-50%" y="-50%" width="200%" height="200%"><feGaussianBlur stdDeviation="30"/></filter>
  <filter id="shadow" x="-20%" y="-20%" width="140%" height="160%"><feDropShadow dx="0" dy="10" stdDeviation="12" flood-color="#000" flood-opacity=".55"/></filter>
  <linearGradient id="glass" x1="0" y1="0" x2="0" y2="1"><stop offset="0" stop-color="#2a3036" stop-opacity=".92"/><stop offset="1" stop-color="#1a1e22" stop-opacity=".92"/></linearGradient>
  <linearGradient id="scan" x1="0" y1="0" x2="0" y2="1"><stop offset="0" stop-color="#f2a93b" stop-opacity=".22"/><stop offset="1" stop-color="#f2a93b" stop-opacity="0"/></linearGradient>
  <linearGradient id="fade" x1="0" y1="0" x2="1" y2="0"><stop offset="0" stop-color="#121417"/><stop offset=".55" stop-color="#121417" stop-opacity="0"/></linearGradient>
<clipPath id="c"><rect width="1280" height="400" rx="18"/></clipPath>
    <clipPath id="sc"><rect x="0" y="0" width="560" height="340" rx="16"/></clipPath></defs>
  <g clip-path="url(#c)">
    <rect width="1280" height="400" fill="#121417"/>
    <circle cx="20" cy="20" r="1.2" fill="#2b3036"/><circle cx="20" cy="48" r="1.2" fill="#2b3036"/><circle cx="20" cy="76" r="1.2" fill="#2b3036"/><circle cx="20" cy="104" r="1.2" fill="#2b3036"/><circle cx="20" cy="132" r="1.2" fill="#2b3036"/><circle cx="20" cy="160" r="1.2" fill="#2b3036"/><circle cx="20" cy="188" r="1.2" fill="#2b3036"/><circle cx="20" cy="216" r="1.2" fill="#2b3036"/><circle cx="20" cy="244" r="1.2" fill="#2b3036"/><circle cx="20" cy="272" r="1.2" fill="#2b3036"/><circle cx="20" cy="300" r="1.2" fill="#2b3036"/><circle cx="20" cy="328" r="1.2" fill="#2b3036"/><circle cx="20" cy="356" r="1.2" fill="#2b3036"/><circle cx="20" cy="384" r="1.2" fill="#2b3036"/><circle cx="48" cy="20" r="1.2" fill="#2b3036"/><circle cx="48" cy="48" r="1.2" fill="#2b3036"/><circle cx="48" cy="76" r="1.2" fill="#2b3036"/><circle cx="48" cy="104" r="1.2" fill="#2b3036"/><circle cx="48" cy="132" r="1.2" fill="#2b3036"/><circle cx="48" cy="160" r="1.2" fill="#2b3036"/><circle cx="48" cy="188" r="1.2" fill="#2b3036"/><circle cx="48" cy="216" r="1.2" fill="#2b3036"/><circle cx="48" cy="244" r="1.2" fill="#2b3036"/><circle cx="48" cy="272" r="1.2" fill="#2b3036"/><circle cx="48" cy="300" r="1.2" fill="#2b3036"/><circle cx="48" cy="328" r="1.2" fill="#2b3036"/><circle cx="48" cy="356" r="1.2" fill="#2b3036"/><circle cx="48" cy="384" r="1.2" fill="#2b3036"/><circle cx="76" cy="20" r="1.2" fill="#2b3036"/><circle cx="76" cy="48" r="1.2" fill="#2b3036"/><circle cx="76" cy="76" r="1.2" fill="#2b3036"/><circle cx="76" cy="104" r="1.2" fill="#2b3036"/><circle cx="76" cy="132" r="1.2" fill="#2b3036"/><circle cx="76" cy="160" r="1.2" fill="#2b3036"/><circle cx="76" cy="188" r="1.2" fill="#2b3036"/><circle cx="76" cy="216" r="1.2" fill="#2b3036"/><circle cx="76" cy="244" r="1.2" fill="#2b3036"/><circle cx="76" cy="272" r="1.2" fill="#2b3036"/><circle cx="76" cy="300" r="1.2" fill="#2b3036"/><circle cx="76" cy="328" r="1.2" fill="#2b3036"/><circle cx="76" cy="356" r="1.2" fill="#2b3036"/><circle cx="76" cy="384" r="1.2" fill="#2b3036"/><circle cx="104" cy="20" r="1.2" fill="#2b3036"/><circle cx="104" cy="48" r="1.2" fill="#2b3036"/><circle cx="104" cy="76" r="1.2" fill="#2b3036"/><circle cx="104" cy="104" r="1.2" fill="#2b3036"/><circle cx="104" cy="132" r="1.2" fill="#2b3036"/><circle cx="104" cy="160" r="1.2" fill="#2b3036"/><circle cx="104" cy="188" r="1.2" fill="#2b3036"/><circle cx="104" cy="216" r="1.2" fill="#2b3036"/><circle cx="104" cy="244" r="1.2" fill="#2b3036"/><circle cx="104" cy="272" r="1.2" fill="#2b3036"/><circle cx="104" cy="300" r="1.2" fill="#2b3036"/><circle cx="104" cy="328" r="1.2" fill="#2b3036"/><circle cx="104" cy="356" r="1.2" fill="#2b3036"/><circle cx="104" cy="384" r="1.2" fill="#2b3036"/><circle cx="132" cy="20" r="1.2" fill="#2b3036"/><circle cx="132" cy="48" r="1.2" fill="#2b3036"/><circle cx="132" cy="76" r="1.2" fill="#2b3036"/><circle cx="132" cy="104" r="1.2" fill="#2b3036"/><circle cx="132" cy="132" r="1.2" fill="#2b3036"/><circle cx="132" cy="160" r="1.2" fill="#2b3036"/><circle cx="132" cy="188" r="1.2" fill="#2b3036"/><circle cx="132" cy="216" r="1.2" fill="#2b3036"/><circle cx="132" cy="244" r="1.2" fill="#2b3036"/><circle cx="132" cy="272" r="1.2" fill="#2b3036"/><circle cx="132" cy="300" r="1.2" fill="#2b3036"/><circle cx="132" cy="328" r="1.2" fill="#2b3036"/><circle cx="132" cy="356" r="1.2" fill="#2b3036"/><circle cx="132" cy="384" r="1.2" fill="#2b3036"/><circle cx="160" cy="20" r="1.2" fill="#2b3036"/><circle cx="160" cy="48" r="1.2" fill="#2b3036"/><circle cx="160" cy="76" r="1.2" fill="#2b3036"/><circle cx="160" cy="104" r="1.2" fill="#2b3036"/><circle cx="160" cy="132" r="1.2" fill="#2b3036"/><circle cx="160" cy="160" r="1.2" fill="#2b3036"/><circle cx="160" cy="188" r="1.2" fill="#2b3036"/><circle cx="160" cy="216" r="1.2" fill="#2b3036"/><circle cx="160" cy="244" r="1.2" fill="#2b3036"/><circle cx="160" cy="272" r="1.2" fill="#2b3036"/><circle cx="160" cy="300" r="1.2" fill="#2b3036"/><circle cx="160" cy="328" r="1.2" fill="#2b3036"/><circle cx="160" cy="356" r="1.2" fill="#2b3036"/><circle cx="160" cy="384" r="1.2" fill="#2b3036"/><circle cx="188" cy="20" r="1.2" fill="#2b3036"/><circle cx="188" cy="48" r="1.2" fill="#2b3036"/><circle cx="188" cy="76" r="1.2" fill="#2b3036"/><circle cx="188" cy="104" r="1.2" fill="#2b3036"/><circle cx="188" cy="132" r="1.2" fill="#2b3036"/><circle cx="188" cy="160" r="1.2" fill="#2b3036"/><circle cx="188" cy="188" r="1.2" fill="#2b3036"/><circle cx="188" cy="216" r="1.2" fill="#2b3036"/><circle cx="188" cy="244" r="1.2" fill="#2b3036"/><circle cx="188" cy="272" r="1.2" fill="#2b3036"/><circle cx="188" cy="300" r="1.2" fill="#2b3036"/><circle cx="188" cy="328" r="1.2" fill="#2b3036"/><circle cx="188" cy="356" r="1.2" fill="#2b3036"/><circle cx="188" cy="384" r="1.2" fill="#2b3036"/><circle cx="216" cy="20" r="1.2" fill="#2b3036"/><circle cx="216" cy="48" r="1.2" fill="#2b3036"/><circle cx="216" cy="76" r="1.2" fill="#2b3036"/><circle cx="216" cy="104" r="1.2" fill="#2b3036"/><circle cx="216" cy="132" r="1.2" fill="#2b3036"/><circle cx="216" cy="160" r="1.2" fill="#2b3036"/><circle cx="216" cy="188" r="1.2" fill="#2b3036"/><circle cx="216" cy="216" r="1.2" fill="#2b3036"/><circle cx="216" cy="244" r="1.2" fill="#2b3036"/><circle cx="216" cy="272" r="1.2" fill="#2b3036"/><circle cx="216" cy="300" r="1.2" fill="#2b3036"/><circle cx="216" cy="328" r="1.2" fill="#2b3036"/><circle cx="216" cy="356" r="1.2" fill="#2b3036"/><circle cx="216" cy="384" r="1.2" fill="#2b3036"/><circle cx="244" cy="20" r="1.2" fill="#2b3036"/><circle cx="244" cy="48" r="1.2" fill="#2b3036"/><circle cx="244" cy="76" r="1.2" fill="#2b3036"/><circle cx="244" cy="104" r="1.2" fill="#2b3036"/><circle cx="244" cy="132" r="1.2" fill="#2b3036"/><circle cx="244" cy="160" r="1.2" fill="#2b3036"/><circle cx="244" cy="188" r="1.2" fill="#2b3036"/><circle cx="244" cy="216" r="1.2" fill="#2b3036"/><circle cx="244" cy="244" r="1.2" fill="#2b3036"/><circle cx="244" cy="272" r="1.2" fill="#2b3036"/><circle cx="244" cy="300" r="1.2" fill="#2b3036"/><circle cx="244" cy="328" r="1.2" fill="#2b3036"/><circle cx="244" cy="356" r="1.2" fill="#2b3036"/><circle cx="244" cy="384" r="1.2" fill="#2b3036"/><circle cx="272" cy="20" r="1.2" fill="#2b3036"/><circle cx="272" cy="48" r="1.2" fill="#2b3036"/><circle cx="272" cy="76" r="1.2" fill="#2b3036"/><circle cx="272" cy="104" r="1.2" fill="#2b3036"/><circle cx="272" cy="132" r="1.2" fill="#2b3036"/><circle cx="272" cy="160" r="1.2" fill="#2b3036"/><circle cx="272" cy="188" r="1.2" fill="#2b3036"/><circle cx="272" cy="216" r="1.2" fill="#2b3036"/><circle cx="272" cy="244" r="1.2" fill="#2b3036"/><circle cx="272" cy="272" r="1.2" fill="#2b3036"/><circle cx="272" cy="300" r="1.2" fill="#2b3036"/><circle cx="272" cy="328" r="1.2" fill="#2b3036"/><circle cx="272" cy="356" r="1.2" fill="#2b3036"/><circle cx="272" cy="384" r="1.2" fill="#2b3036"/><circle cx="300" cy="20" r="1.2" fill="#2b3036"/><circle cx="300" cy="48" r="1.2" fill="#2b3036"/><circle cx="300" cy="76" r="1.2" fill="#2b3036"/><circle cx="300" cy="104" r="1.2" fill="#2b3036"/><circle cx="300" cy="132" r="1.2" fill="#2b3036"/><circle cx="300" cy="160" r="1.2" fill="#2b3036"/><circle cx="300" cy="188" r="1.2" fill="#2b3036"/><circle cx="300" cy="216" r="1.2" fill="#2b3036"/><circle cx="300" cy="244" r="1.2" fill="#2b3036"/><circle cx="300" cy="272" r="1.2" fill="#2b3036"/><circle cx="300" cy="300" r="1.2" fill="#2b3036"/><circle cx="300" cy="328" r="1.2" fill="#2b3036"/><circle cx="300" cy="356" r="1.2" fill="#2b3036"/><circle cx="300" cy="384" r="1.2" fill="#2b3036"/><circle cx="328" cy="20" r="1.2" fill="#2b3036"/><circle cx="328" cy="48" r="1.2" fill="#2b3036"/><circle cx="328" cy="76" r="1.2" fill="#2b3036"/><circle cx="328" cy="104" r="1.2" fill="#2b3036"/><circle cx="328" cy="132" r="1.2" fill="#2b3036"/><circle cx="328" cy="160" r="1.2" fill="#2b3036"/><circle cx="328" cy="188" r="1.2" fill="#2b3036"/><circle cx="328" cy="216" r="1.2" fill="#2b3036"/><circle cx="328" cy="244" r="1.2" fill="#2b3036"/><circle cx="328" cy="272" r="1.2" fill="#2b3036"/><circle cx="328" cy="300" r="1.2" fill="#2b3036"/><circle cx="328" cy="328" r="1.2" fill="#2b3036"/><circle cx="328" cy="356" r="1.2" fill="#2b3036"/><circle cx="328" cy="384" r="1.2" fill="#2b3036"/><circle cx="356" cy="20" r="1.2" fill="#2b3036"/><circle cx="356" cy="48" r="1.2" fill="#2b3036"/><circle cx="356" cy="76" r="1.2" fill="#2b3036"/><circle cx="356" cy="104" r="1.2" fill="#2b3036"/><circle cx="356" cy="132" r="1.2" fill="#2b3036"/><circle cx="356" cy="160" r="1.2" fill="#2b3036"/><circle cx="356" cy="188" r="1.2" fill="#2b3036"/><circle cx="356" cy="216" r="1.2" fill="#2b3036"/><circle cx="356" cy="244" r="1.2" fill="#2b3036"/><circle cx="356" cy="272" r="1.2" fill="#2b3036"/><circle cx="356" cy="300" r="1.2" fill="#2b3036"/><circle cx="356" cy="328" r="1.2" fill="#2b3036"/><circle cx="356" cy="356" r="1.2" fill="#2b3036"/><circle cx="356" cy="384" r="1.2" fill="#2b3036"/><circle cx="384" cy="20" r="1.2" fill="#2b3036"/><circle cx="384" cy="48" r="1.2" fill="#2b3036"/><circle cx="384" cy="76" r="1.2" fill="#2b3036"/><circle cx="384" cy="104" r="1.2" fill="#2b3036"/><circle cx="384" cy="132" r="1.2" fill="#2b3036"/><circle cx="384" cy="160" r="1.2" fill="#2b3036"/><circle cx="384" cy="188" r="1.2" fill="#2b3036"/><circle cx="384" cy="216" r="1.2" fill="#2b3036"/><circle cx="384" cy="244" r="1.2" fill="#2b3036"/><circle cx="384" cy="272" r="1.2" fill="#2b3036"/><circle cx="384" cy="300" r="1.2" fill="#2b3036"/><circle cx="384" cy="328" r="1.2" fill="#2b3036"/><circle cx="384" cy="356" r="1.2" fill="#2b3036"/><circle cx="384" cy="384" r="1.2" fill="#2b3036"/><circle cx="412" cy="20" r="1.2" fill="#2b3036"/><circle cx="412" cy="48" r="1.2" fill="#2b3036"/><circle cx="412" cy="76" r="1.2" fill="#2b3036"/><circle cx="412" cy="104" r="1.2" fill="#2b3036"/><circle cx="412" cy="132" r="1.2" fill="#2b3036"/><circle cx="412" cy="160" r="1.2" fill="#2b3036"/><circle cx="412" cy="188" r="1.2" fill="#2b3036"/><circle cx="412" cy="216" r="1.2" fill="#2b3036"/><circle cx="412" cy="244" r="1.2" fill="#2b3036"/><circle cx="412" cy="272" r="1.2" fill="#2b3036"/><circle cx="412" cy="300" r="1.2" fill="#2b3036"/><circle cx="412" cy="328" r="1.2" fill="#2b3036"/><circle cx="412" cy="356" r="1.2" fill="#2b3036"/><circle cx="412" cy="384" r="1.2" fill="#2b3036"/><circle cx="440" cy="20" r="1.2" fill="#2b3036"/><circle cx="440" cy="48" r="1.2" fill="#2b3036"/><circle cx="440" cy="76" r="1.2" fill="#2b3036"/><circle cx="440" cy="104" r="1.2" fill="#2b3036"/><circle cx="440" cy="132" r="1.2" fill="#2b3036"/><circle cx="440" cy="160" r="1.2" fill="#2b3036"/><circle cx="440" cy="188" r="1.2" fill="#2b3036"/><circle cx="440" cy="216" r="1.2" fill="#2b3036"/><circle cx="440" cy="244" r="1.2" fill="#2b3036"/><circle cx="440" cy="272" r="1.2" fill="#2b3036"/><circle cx="440" cy="300" r="1.2" fill="#2b3036"/><circle cx="440" cy="328" r="1.2" fill="#2b3036"/><circle cx="440" cy="356" r="1.2" fill="#2b3036"/><circle cx="440" cy="384" r="1.2" fill="#2b3036"/><circle cx="468" cy="20" r="1.2" fill="#2b3036"/><circle cx="468" cy="48" r="1.2" fill="#2b3036"/><circle cx="468" cy="76" r="1.2" fill="#2b3036"/><circle cx="468" cy="104" r="1.2" fill="#2b3036"/><circle cx="468" cy="132" r="1.2" fill="#2b3036"/><circle cx="468" cy="160" r="1.2" fill="#2b3036"/><circle cx="468" cy="188" r="1.2" fill="#2b3036"/><circle cx="468" cy="216" r="1.2" fill="#2b3036"/><circle cx="468" cy="244" r="1.2" fill="#2b3036"/><circle cx="468" cy="272" r="1.2" fill="#2b3036"/><circle cx="468" cy="300" r="1.2" fill="#2b3036"/><circle cx="468" cy="328" r="1.2" fill="#2b3036"/><circle cx="468" cy="356" r="1.2" fill="#2b3036"/><circle cx="468" cy="384" r="1.2" fill="#2b3036"/><circle cx="496" cy="20" r="1.2" fill="#2b3036"/><circle cx="496" cy="48" r="1.2" fill="#2b3036"/><circle cx="496" cy="76" r="1.2" fill="#2b3036"/><circle cx="496" cy="104" r="1.2" fill="#2b3036"/><circle cx="496" cy="132" r="1.2" fill="#2b3036"/><circle cx="496" cy="160" r="1.2" fill="#2b3036"/><circle cx="496" cy="188" r="1.2" fill="#2b3036"/><circle cx="496" cy="216" r="1.2" fill="#2b3036"/><circle cx="496" cy="244" r="1.2" fill="#2b3036"/><circle cx="496" cy="272" r="1.2" fill="#2b3036"/><circle cx="496" cy="300" r="1.2" fill="#2b3036"/><circle cx="496" cy="328" r="1.2" fill="#2b3036"/><circle cx="496" cy="356" r="1.2" fill="#2b3036"/><circle cx="496" cy="384" r="1.2" fill="#2b3036"/><circle cx="524" cy="20" r="1.2" fill="#2b3036"/><circle cx="524" cy="48" r="1.2" fill="#2b3036"/><circle cx="524" cy="76" r="1.2" fill="#2b3036"/><circle cx="524" cy="104" r="1.2" fill="#2b3036"/><circle cx="524" cy="132" r="1.2" fill="#2b3036"/><circle cx="524" cy="160" r="1.2" fill="#2b3036"/><circle cx="524" cy="188" r="1.2" fill="#2b3036"/><circle cx="524" cy="216" r="1.2" fill="#2b3036"/><circle cx="524" cy="244" r="1.2" fill="#2b3036"/><circle cx="524" cy="272" r="1.2" fill="#2b3036"/><circle cx="524" cy="300" r="1.2" fill="#2b3036"/><circle cx="524" cy="328" r="1.2" fill="#2b3036"/><circle cx="524" cy="356" r="1.2" fill="#2b3036"/><circle cx="524" cy="384" r="1.2" fill="#2b3036"/><circle cx="552" cy="20" r="1.2" fill="#2b3036"/><circle cx="552" cy="48" r="1.2" fill="#2b3036"/><circle cx="552" cy="76" r="1.2" fill="#2b3036"/><circle cx="552" cy="104" r="1.2" fill="#2b3036"/><circle cx="552" cy="132" r="1.2" fill="#2b3036"/><circle cx="552" cy="160" r="1.2" fill="#2b3036"/><circle cx="552" cy="188" r="1.2" fill="#2b3036"/><circle cx="552" cy="216" r="1.2" fill="#2b3036"/><circle cx="552" cy="244" r="1.2" fill="#2b3036"/><circle cx="552" cy="272" r="1.2" fill="#2b3036"/><circle cx="552" cy="300" r="1.2" fill="#2b3036"/><circle cx="552" cy="328" r="1.2" fill="#2b3036"/><circle cx="552" cy="356" r="1.2" fill="#2b3036"/><circle cx="552" cy="384" r="1.2" fill="#2b3036"/><circle cx="580" cy="20" r="1.2" fill="#2b3036"/><circle cx="580" cy="48" r="1.2" fill="#2b3036"/><circle cx="580" cy="76" r="1.2" fill="#2b3036"/><circle cx="580" cy="104" r="1.2" fill="#2b3036"/><circle cx="580" cy="132" r="1.2" fill="#2b3036"/><circle cx="580" cy="160" r="1.2" fill="#2b3036"/><circle cx="580" cy="188" r="1.2" fill="#2b3036"/><circle cx="580" cy="216" r="1.2" fill="#2b3036"/><circle cx="580" cy="244" r="1.2" fill="#2b3036"/><circle cx="580" cy="272" r="1.2" fill="#2b3036"/><circle cx="580" cy="300" r="1.2" fill="#2b3036"/><circle cx="580" cy="328" r="1.2" fill="#2b3036"/><circle cx="580" cy="356" r="1.2" fill="#2b3036"/><circle cx="580" cy="384" r="1.2" fill="#2b3036"/><circle cx="608" cy="20" r="1.2" fill="#2b3036"/><circle cx="608" cy="48" r="1.2" fill="#2b3036"/><circle cx="608" cy="76" r="1.2" fill="#2b3036"/><circle cx="608" cy="104" r="1.2" fill="#2b3036"/><circle cx="608" cy="132" r="1.2" fill="#2b3036"/><circle cx="608" cy="160" r="1.2" fill="#2b3036"/><circle cx="608" cy="188" r="1.2" fill="#2b3036"/><circle cx="608" cy="216" r="1.2" fill="#2b3036"/><circle cx="608" cy="244" r="1.2" fill="#2b3036"/><circle cx="608" cy="272" r="1.2" fill="#2b3036"/><circle cx="608" cy="300" r="1.2" fill="#2b3036"/><circle cx="608" cy="328" r="1.2" fill="#2b3036"/><circle cx="608" cy="356" r="1.2" fill="#2b3036"/><circle cx="608" cy="384" r="1.2" fill="#2b3036"/><circle cx="636" cy="20" r="1.2" fill="#2b3036"/><circle cx="636" cy="48" r="1.2" fill="#2b3036"/><circle cx="636" cy="76" r="1.2" fill="#2b3036"/><circle cx="636" cy="104" r="1.2" fill="#2b3036"/><circle cx="636" cy="132" r="1.2" fill="#2b3036"/><circle cx="636" cy="160" r="1.2" fill="#2b3036"/><circle cx="636" cy="188" r="1.2" fill="#2b3036"/><circle cx="636" cy="216" r="1.2" fill="#2b3036"/><circle cx="636" cy="244" r="1.2" fill="#2b3036"/><circle cx="636" cy="272" r="1.2" fill="#2b3036"/><circle cx="636" cy="300" r="1.2" fill="#2b3036"/><circle cx="636" cy="328" r="1.2" fill="#2b3036"/><circle cx="636" cy="356" r="1.2" fill="#2b3036"/><circle cx="636" cy="384" r="1.2" fill="#2b3036"/><circle cx="664" cy="20" r="1.2" fill="#2b3036"/><circle cx="664" cy="48" r="1.2" fill="#2b3036"/><circle cx="664" cy="76" r="1.2" fill="#2b3036"/><circle cx="664" cy="104" r="1.2" fill="#2b3036"/><circle cx="664" cy="132" r="1.2" fill="#2b3036"/><circle cx="664" cy="160" r="1.2" fill="#2b3036"/><circle cx="664" cy="188" r="1.2" fill="#2b3036"/><circle cx="664" cy="216" r="1.2" fill="#2b3036"/><circle cx="664" cy="244" r="1.2" fill="#2b3036"/><circle cx="664" cy="272" r="1.2" fill="#2b3036"/><circle cx="664" cy="300" r="1.2" fill="#2b3036"/><circle cx="664" cy="328" r="1.2" fill="#2b3036"/><circle cx="664" cy="356" r="1.2" fill="#2b3036"/><circle cx="664" cy="384" r="1.2" fill="#2b3036"/><circle cx="692" cy="20" r="1.2" fill="#2b3036"/><circle cx="692" cy="48" r="1.2" fill="#2b3036"/><circle cx="692" cy="76" r="1.2" fill="#2b3036"/><circle cx="692" cy="104" r="1.2" fill="#2b3036"/><circle cx="692" cy="132" r="1.2" fill="#2b3036"/><circle cx="692" cy="160" r="1.2" fill="#2b3036"/><circle cx="692" cy="188" r="1.2" fill="#2b3036"/><circle cx="692" cy="216" r="1.2" fill="#2b3036"/><circle cx="692" cy="244" r="1.2" fill="#2b3036"/><circle cx="692" cy="272" r="1.2" fill="#2b3036"/><circle cx="692" cy="300" r="1.2" fill="#2b3036"/><circle cx="692" cy="328" r="1.2" fill="#2b3036"/><circle cx="692" cy="356" r="1.2" fill="#2b3036"/><circle cx="692" cy="384" r="1.2" fill="#2b3036"/><circle cx="720" cy="20" r="1.2" fill="#2b3036"/><circle cx="720" cy="48" r="1.2" fill="#2b3036"/><circle cx="720" cy="76" r="1.2" fill="#2b3036"/><circle cx="720" cy="104" r="1.2" fill="#2b3036"/><circle cx="720" cy="132" r="1.2" fill="#2b3036"/><circle cx="720" cy="160" r="1.2" fill="#2b3036"/><circle cx="720" cy="188" r="1.2" fill="#2b3036"/><circle cx="720" cy="216" r="1.2" fill="#2b3036"/><circle cx="720" cy="244" r="1.2" fill="#2b3036"/><circle cx="720" cy="272" r="1.2" fill="#2b3036"/><circle cx="720" cy="300" r="1.2" fill="#2b3036"/><circle cx="720" cy="328" r="1.2" fill="#2b3036"/><circle cx="720" cy="356" r="1.2" fill="#2b3036"/><circle cx="720" cy="384" r="1.2" fill="#2b3036"/><circle cx="748" cy="20" r="1.2" fill="#2b3036"/><circle cx="748" cy="48" r="1.2" fill="#2b3036"/><circle cx="748" cy="76" r="1.2" fill="#2b3036"/><circle cx="748" cy="104" r="1.2" fill="#2b3036"/><circle cx="748" cy="132" r="1.2" fill="#2b3036"/><circle cx="748" cy="160" r="1.2" fill="#2b3036"/><circle cx="748" cy="188" r="1.2" fill="#2b3036"/><circle cx="748" cy="216" r="1.2" fill="#2b3036"/><circle cx="748" cy="244" r="1.2" fill="#2b3036"/><circle cx="748" cy="272" r="1.2" fill="#2b3036"/><circle cx="748" cy="300" r="1.2" fill="#2b3036"/><circle cx="748" cy="328" r="1.2" fill="#2b3036"/><circle cx="748" cy="356" r="1.2" fill="#2b3036"/><circle cx="748" cy="384" r="1.2" fill="#2b3036"/><circle cx="776" cy="20" r="1.2" fill="#2b3036"/><circle cx="776" cy="48" r="1.2" fill="#2b3036"/><circle cx="776" cy="76" r="1.2" fill="#2b3036"/><circle cx="776" cy="104" r="1.2" fill="#2b3036"/><circle cx="776" cy="132" r="1.2" fill="#2b3036"/><circle cx="776" cy="160" r="1.2" fill="#2b3036"/><circle cx="776" cy="188" r="1.2" fill="#2b3036"/><circle cx="776" cy="216" r="1.2" fill="#2b3036"/><circle cx="776" cy="244" r="1.2" fill="#2b3036"/><circle cx="776" cy="272" r="1.2" fill="#2b3036"/><circle cx="776" cy="300" r="1.2" fill="#2b3036"/><circle cx="776" cy="328" r="1.2" fill="#2b3036"/><circle cx="776" cy="356" r="1.2" fill="#2b3036"/><circle cx="776" cy="384" r="1.2" fill="#2b3036"/><circle cx="804" cy="20" r="1.2" fill="#2b3036"/><circle cx="804" cy="48" r="1.2" fill="#2b3036"/><circle cx="804" cy="76" r="1.2" fill="#2b3036"/><circle cx="804" cy="104" r="1.2" fill="#2b3036"/><circle cx="804" cy="132" r="1.2" fill="#2b3036"/><circle cx="804" cy="160" r="1.2" fill="#2b3036"/><circle cx="804" cy="188" r="1.2" fill="#2b3036"/><circle cx="804" cy="216" r="1.2" fill="#2b3036"/><circle cx="804" cy="244" r="1.2" fill="#2b3036"/><circle cx="804" cy="272" r="1.2" fill="#2b3036"/><circle cx="804" cy="300" r="1.2" fill="#2b3036"/><circle cx="804" cy="328" r="1.2" fill="#2b3036"/><circle cx="804" cy="356" r="1.2" fill="#2b3036"/><circle cx="804" cy="384" r="1.2" fill="#2b3036"/><circle cx="832" cy="20" r="1.2" fill="#2b3036"/><circle cx="832" cy="48" r="1.2" fill="#2b3036"/><circle cx="832" cy="76" r="1.2" fill="#2b3036"/><circle cx="832" cy="104" r="1.2" fill="#2b3036"/><circle cx="832" cy="132" r="1.2" fill="#2b3036"/><circle cx="832" cy="160" r="1.2" fill="#2b3036"/><circle cx="832" cy="188" r="1.2" fill="#2b3036"/><circle cx="832" cy="216" r="1.2" fill="#2b3036"/><circle cx="832" cy="244" r="1.2" fill="#2b3036"/><circle cx="832" cy="272" r="1.2" fill="#2b3036"/><circle cx="832" cy="300" r="1.2" fill="#2b3036"/><circle cx="832" cy="328" r="1.2" fill="#2b3036"/><circle cx="832" cy="356" r="1.2" fill="#2b3036"/><circle cx="832" cy="384" r="1.2" fill="#2b3036"/><circle cx="860" cy="20" r="1.2" fill="#2b3036"/><circle cx="860" cy="48" r="1.2" fill="#2b3036"/><circle cx="860" cy="76" r="1.2" fill="#2b3036"/><circle cx="860" cy="104" r="1.2" fill="#2b3036"/><circle cx="860" cy="132" r="1.2" fill="#2b3036"/><circle cx="860" cy="160" r="1.2" fill="#2b3036"/><circle cx="860" cy="188" r="1.2" fill="#2b3036"/><circle cx="860" cy="216" r="1.2" fill="#2b3036"/><circle cx="860" cy="244" r="1.2" fill="#2b3036"/><circle cx="860" cy="272" r="1.2" fill="#2b3036"/><circle cx="860" cy="300" r="1.2" fill="#2b3036"/><circle cx="860" cy="328" r="1.2" fill="#2b3036"/><circle cx="860" cy="356" r="1.2" fill="#2b3036"/><circle cx="860" cy="384" r="1.2" fill="#2b3036"/><circle cx="888" cy="20" r="1.2" fill="#2b3036"/><circle cx="888" cy="48" r="1.2" fill="#2b3036"/><circle cx="888" cy="76" r="1.2" fill="#2b3036"/><circle cx="888" cy="104" r="1.2" fill="#2b3036"/><circle cx="888" cy="132" r="1.2" fill="#2b3036"/><circle cx="888" cy="160" r="1.2" fill="#2b3036"/><circle cx="888" cy="188" r="1.2" fill="#2b3036"/><circle cx="888" cy="216" r="1.2" fill="#2b3036"/><circle cx="888" cy="244" r="1.2" fill="#2b3036"/><circle cx="888" cy="272" r="1.2" fill="#2b3036"/><circle cx="888" cy="300" r="1.2" fill="#2b3036"/><circle cx="888" cy="328" r="1.2" fill="#2b3036"/><circle cx="888" cy="356" r="1.2" fill="#2b3036"/><circle cx="888" cy="384" r="1.2" fill="#2b3036"/><circle cx="916" cy="20" r="1.2" fill="#2b3036"/><circle cx="916" cy="48" r="1.2" fill="#2b3036"/><circle cx="916" cy="76" r="1.2" fill="#2b3036"/><circle cx="916" cy="104" r="1.2" fill="#2b3036"/><circle cx="916" cy="132" r="1.2" fill="#2b3036"/><circle cx="916" cy="160" r="1.2" fill="#2b3036"/><circle cx="916" cy="188" r="1.2" fill="#2b3036"/><circle cx="916" cy="216" r="1.2" fill="#2b3036"/><circle cx="916" cy="244" r="1.2" fill="#2b3036"/><circle cx="916" cy="272" r="1.2" fill="#2b3036"/><circle cx="916" cy="300" r="1.2" fill="#2b3036"/><circle cx="916" cy="328" r="1.2" fill="#2b3036"/><circle cx="916" cy="356" r="1.2" fill="#2b3036"/><circle cx="916" cy="384" r="1.2" fill="#2b3036"/><circle cx="944" cy="20" r="1.2" fill="#2b3036"/><circle cx="944" cy="48" r="1.2" fill="#2b3036"/><circle cx="944" cy="76" r="1.2" fill="#2b3036"/><circle cx="944" cy="104" r="1.2" fill="#2b3036"/><circle cx="944" cy="132" r="1.2" fill="#2b3036"/><circle cx="944" cy="160" r="1.2" fill="#2b3036"/><circle cx="944" cy="188" r="1.2" fill="#2b3036"/><circle cx="944" cy="216" r="1.2" fill="#2b3036"/><circle cx="944" cy="244" r="1.2" fill="#2b3036"/><circle cx="944" cy="272" r="1.2" fill="#2b3036"/><circle cx="944" cy="300" r="1.2" fill="#2b3036"/><circle cx="944" cy="328" r="1.2" fill="#2b3036"/><circle cx="944" cy="356" r="1.2" fill="#2b3036"/><circle cx="944" cy="384" r="1.2" fill="#2b3036"/><circle cx="972" cy="20" r="1.2" fill="#2b3036"/><circle cx="972" cy="48" r="1.2" fill="#2b3036"/><circle cx="972" cy="76" r="1.2" fill="#2b3036"/><circle cx="972" cy="104" r="1.2" fill="#2b3036"/><circle cx="972" cy="132" r="1.2" fill="#2b3036"/><circle cx="972" cy="160" r="1.2" fill="#2b3036"/><circle cx="972" cy="188" r="1.2" fill="#2b3036"/><circle cx="972" cy="216" r="1.2" fill="#2b3036"/><circle cx="972" cy="244" r="1.2" fill="#2b3036"/><circle cx="972" cy="272" r="1.2" fill="#2b3036"/><circle cx="972" cy="300" r="1.2" fill="#2b3036"/><circle cx="972" cy="328" r="1.2" fill="#2b3036"/><circle cx="972" cy="356" r="1.2" fill="#2b3036"/><circle cx="972" cy="384" r="1.2" fill="#2b3036"/><circle cx="1000" cy="20" r="1.2" fill="#2b3036"/><circle cx="1000" cy="48" r="1.2" fill="#2b3036"/><circle cx="1000" cy="76" r="1.2" fill="#2b3036"/><circle cx="1000" cy="104" r="1.2" fill="#2b3036"/><circle cx="1000" cy="132" r="1.2" fill="#2b3036"/><circle cx="1000" cy="160" r="1.2" fill="#2b3036"/><circle cx="1000" cy="188" r="1.2" fill="#2b3036"/><circle cx="1000" cy="216" r="1.2" fill="#2b3036"/><circle cx="1000" cy="244" r="1.2" fill="#2b3036"/><circle cx="1000" cy="272" r="1.2" fill="#2b3036"/><circle cx="1000" cy="300" r="1.2" fill="#2b3036"/><circle cx="1000" cy="328" r="1.2" fill="#2b3036"/><circle cx="1000" cy="356" r="1.2" fill="#2b3036"/><circle cx="1000" cy="384" r="1.2" fill="#2b3036"/><circle cx="1028" cy="20" r="1.2" fill="#2b3036"/><circle cx="1028" cy="48" r="1.2" fill="#2b3036"/><circle cx="1028" cy="76" r="1.2" fill="#2b3036"/><circle cx="1028" cy="104" r="1.2" fill="#2b3036"/><circle cx="1028" cy="132" r="1.2" fill="#2b3036"/><circle cx="1028" cy="160" r="1.2" fill="#2b3036"/><circle cx="1028" cy="188" r="1.2" fill="#2b3036"/><circle cx="1028" cy="216" r="1.2" fill="#2b3036"/><circle cx="1028" cy="244" r="1.2" fill="#2b3036"/><circle cx="1028" cy="272" r="1.2" fill="#2b3036"/><circle cx="1028" cy="300" r="1.2" fill="#2b3036"/><circle cx="1028" cy="328" r="1.2" fill="#2b3036"/><circle cx="1028" cy="356" r="1.2" fill="#2b3036"/><circle cx="1028" cy="384" r="1.2" fill="#2b3036"/><circle cx="1056" cy="20" r="1.2" fill="#2b3036"/><circle cx="1056" cy="48" r="1.2" fill="#2b3036"/><circle cx="1056" cy="76" r="1.2" fill="#2b3036"/><circle cx="1056" cy="104" r="1.2" fill="#2b3036"/><circle cx="1056" cy="132" r="1.2" fill="#2b3036"/><circle cx="1056" cy="160" r="1.2" fill="#2b3036"/><circle cx="1056" cy="188" r="1.2" fill="#2b3036"/><circle cx="1056" cy="216" r="1.2" fill="#2b3036"/><circle cx="1056" cy="244" r="1.2" fill="#2b3036"/><circle cx="1056" cy="272" r="1.2" fill="#2b3036"/><circle cx="1056" cy="300" r="1.2" fill="#2b3036"/><circle cx="1056" cy="328" r="1.2" fill="#2b3036"/><circle cx="1056" cy="356" r="1.2" fill="#2b3036"/><circle cx="1056" cy="384" r="1.2" fill="#2b3036"/><circle cx="1084" cy="20" r="1.2" fill="#2b3036"/><circle cx="1084" cy="48" r="1.2" fill="#2b3036"/><circle cx="1084" cy="76" r="1.2" fill="#2b3036"/><circle cx="1084" cy="104" r="1.2" fill="#2b3036"/><circle cx="1084" cy="132" r="1.2" fill="#2b3036"/><circle cx="1084" cy="160" r="1.2" fill="#2b3036"/><circle cx="1084" cy="188" r="1.2" fill="#2b3036"/><circle cx="1084" cy="216" r="1.2" fill="#2b3036"/><circle cx="1084" cy="244" r="1.2" fill="#2b3036"/><circle cx="1084" cy="272" r="1.2" fill="#2b3036"/><circle cx="1084" cy="300" r="1.2" fill="#2b3036"/><circle cx="1084" cy="328" r="1.2" fill="#2b3036"/><circle cx="1084" cy="356" r="1.2" fill="#2b3036"/><circle cx="1084" cy="384" r="1.2" fill="#2b3036"/><circle cx="1112" cy="20" r="1.2" fill="#2b3036"/><circle cx="1112" cy="48" r="1.2" fill="#2b3036"/><circle cx="1112" cy="76" r="1.2" fill="#2b3036"/><circle cx="1112" cy="104" r="1.2" fill="#2b3036"/><circle cx="1112" cy="132" r="1.2" fill="#2b3036"/><circle cx="1112" cy="160" r="1.2" fill="#2b3036"/><circle cx="1112" cy="188" r="1.2" fill="#2b3036"/><circle cx="1112" cy="216" r="1.2" fill="#2b3036"/><circle cx="1112" cy="244" r="1.2" fill="#2b3036"/><circle cx="1112" cy="272" r="1.2" fill="#2b3036"/><circle cx="1112" cy="300" r="1.2" fill="#2b3036"/><circle cx="1112" cy="328" r="1.2" fill="#2b3036"/><circle cx="1112" cy="356" r="1.2" fill="#2b3036"/><circle cx="1112" cy="384" r="1.2" fill="#2b3036"/><circle cx="1140" cy="20" r="1.2" fill="#2b3036"/><circle cx="1140" cy="48" r="1.2" fill="#2b3036"/><circle cx="1140" cy="76" r="1.2" fill="#2b3036"/><circle cx="1140" cy="104" r="1.2" fill="#2b3036"/><circle cx="1140" cy="132" r="1.2" fill="#2b3036"/><circle cx="1140" cy="160" r="1.2" fill="#2b3036"/><circle cx="1140" cy="188" r="1.2" fill="#2b3036"/><circle cx="1140" cy="216" r="1.2" fill="#2b3036"/><circle cx="1140" cy="244" r="1.2" fill="#2b3036"/><circle cx="1140" cy="272" r="1.2" fill="#2b3036"/><circle cx="1140" cy="300" r="1.2" fill="#2b3036"/><circle cx="1140" cy="328" r="1.2" fill="#2b3036"/><circle cx="1140" cy="356" r="1.2" fill="#2b3036"/><circle cx="1140" cy="384" r="1.2" fill="#2b3036"/><circle cx="1168" cy="20" r="1.2" fill="#2b3036"/><circle cx="1168" cy="48" r="1.2" fill="#2b3036"/><circle cx="1168" cy="76" r="1.2" fill="#2b3036"/><circle cx="1168" cy="104" r="1.2" fill="#2b3036"/><circle cx="1168" cy="132" r="1.2" fill="#2b3036"/><circle cx="1168" cy="160" r="1.2" fill="#2b3036"/><circle cx="1168" cy="188" r="1.2" fill="#2b3036"/><circle cx="1168" cy="216" r="1.2" fill="#2b3036"/><circle cx="1168" cy="244" r="1.2" fill="#2b3036"/><circle cx="1168" cy="272" r="1.2" fill="#2b3036"/><circle cx="1168" cy="300" r="1.2" fill="#2b3036"/><circle cx="1168" cy="328" r="1.2" fill="#2b3036"/><circle cx="1168" cy="356" r="1.2" fill="#2b3036"/><circle cx="1168" cy="384" r="1.2" fill="#2b3036"/><circle cx="1196" cy="20" r="1.2" fill="#2b3036"/><circle cx="1196" cy="48" r="1.2" fill="#2b3036"/><circle cx="1196" cy="76" r="1.2" fill="#2b3036"/><circle cx="1196" cy="104" r="1.2" fill="#2b3036"/><circle cx="1196" cy="132" r="1.2" fill="#2b3036"/><circle cx="1196" cy="160" r="1.2" fill="#2b3036"/><circle cx="1196" cy="188" r="1.2" fill="#2b3036"/><circle cx="1196" cy="216" r="1.2" fill="#2b3036"/><circle cx="1196" cy="244" r="1.2" fill="#2b3036"/><circle cx="1196" cy="272" r="1.2" fill="#2b3036"/><circle cx="1196" cy="300" r="1.2" fill="#2b3036"/><circle cx="1196" cy="328" r="1.2" fill="#2b3036"/><circle cx="1196" cy="356" r="1.2" fill="#2b3036"/><circle cx="1196" cy="384" r="1.2" fill="#2b3036"/><circle cx="1224" cy="20" r="1.2" fill="#2b3036"/><circle cx="1224" cy="48" r="1.2" fill="#2b3036"/><circle cx="1224" cy="76" r="1.2" fill="#2b3036"/><circle cx="1224" cy="104" r="1.2" fill="#2b3036"/><circle cx="1224" cy="132" r="1.2" fill="#2b3036"/><circle cx="1224" cy="160" r="1.2" fill="#2b3036"/><circle cx="1224" cy="188" r="1.2" fill="#2b3036"/><circle cx="1224" cy="216" r="1.2" fill="#2b3036"/><circle cx="1224" cy="244" r="1.2" fill="#2b3036"/><circle cx="1224" cy="272" r="1.2" fill="#2b3036"/><circle cx="1224" cy="300" r="1.2" fill="#2b3036"/><circle cx="1224" cy="328" r="1.2" fill="#2b3036"/><circle cx="1224" cy="356" r="1.2" fill="#2b3036"/><circle cx="1224" cy="384" r="1.2" fill="#2b3036"/><circle cx="1252" cy="20" r="1.2" fill="#2b3036"/><circle cx="1252" cy="48" r="1.2" fill="#2b3036"/><circle cx="1252" cy="76" r="1.2" fill="#2b3036"/><circle cx="1252" cy="104" r="1.2" fill="#2b3036"/><circle cx="1252" cy="132" r="1.2" fill="#2b3036"/><circle cx="1252" cy="160" r="1.2" fill="#2b3036"/><circle cx="1252" cy="188" r="1.2" fill="#2b3036"/><circle cx="1252" cy="216" r="1.2" fill="#2b3036"/><circle cx="1252" cy="244" r="1.2" fill="#2b3036"/><circle cx="1252" cy="272" r="1.2" fill="#2b3036"/><circle cx="1252" cy="300" r="1.2" fill="#2b3036"/><circle cx="1252" cy="328" r="1.2" fill="#2b3036"/><circle cx="1252" cy="356" r="1.2" fill="#2b3036"/><circle cx="1252" cy="384" r="1.2" fill="#2b3036"/>
    <circle cx="200" cy="60.0" r="160" fill="#f2a93b" opacity=".07" filter="url(#soft)"/>
    <g transform="translate(660 30.0)">
      <rect width="560" height="340" rx="16" fill="#171a1e" stroke="#262b31" stroke-width="1.5"/>
      <g clip-path="url(#sc)"><circle cx="400" cy="170" r="130" fill="#f2a93b" opacity=".12" filter="url(#soft)"/><g transform="rotate(-4.6816140042691465 58.0 185.0)" opacity="0.561372013508668"><rect x="36" y="156" width="44" height="58" rx="3.5" fill="url(#glass)" stroke="#3a4148" stroke-width="1.5"/><circle cx="47.0" cy="167.6" r="5.3" fill="#8e949b" opacity=".8"/><rect x="55.8" y="164.12" width="18.48" height="3" rx="1.5" fill="#8e949b" opacity="0.9"/><rect x="42.16" y="180.36" width="31.68" height="2.5" rx="1.25" fill="#8e949b" opacity="0.45"/><rect x="42.16" y="187.9" width="23.76" height="2.5" rx="1.25" fill="#8e949b" opacity="0.45"/><rect x="42.16" y="195.44" width="31.68" height="2.5" rx="1.25" fill="#8e949b" opacity="0.45"/><rect x="42.16" y="202.98000000000002" width="23.76" height="2.5" rx="1.25" fill="#8e949b" opacity="0.45"/></g><g transform="rotate(-17.525952304024532 116.0 65.0)" opacity="0.643114178733761"><rect x="94" y="36" width="44" height="58" rx="3.5" fill="url(#glass)" stroke="#3a4148" stroke-width="1.5"/><circle cx="105.0" cy="47.6" r="5.3" fill="#8e949b" opacity=".8"/><rect x="113.8" y="44.120000000000005" width="18.48" height="3" rx="1.5" fill="#8e949b" opacity="0.9"/><rect x="100.16" y="60.36" width="31.68" height="2.5" rx="1.25" fill="#8e949b" opacity="0.45"/><rect x="100.16" y="67.9" width="23.76" height="2.5" rx="1.25" fill="#8e949b" opacity="0.45"/><rect x="100.16" y="75.44" width="31.68" height="2.5" rx="1.25" fill="#8e949b" opacity="0.45"/><rect x="100.16" y="82.98" width="23.76" height="2.5" rx="1.25" fill="#8e949b" opacity="0.45"/></g><g transform="rotate(17.84321407837666 61.0 108.0)" opacity="0.5145922276328567"><rect x="39" y="79" width="44" height="58" rx="3.5" fill="url(#glass)" stroke="#3a4148" stroke-width="1.5"/><circle cx="50.0" cy="90.6" r="5.3" fill="#8e949b" opacity=".8"/><rect x="58.8" y="87.12" width="18.48" height="3" rx="1.5" fill="#8e949b" opacity="0.9"/><rect x="45.16" y="103.36" width="31.68" height="2.5" rx="1.25" fill="#8e949b" opacity="0.45"/><rect x="45.16" y="110.9" width="23.76" height="2.5" rx="1.25" fill="#8e949b" opacity="0.45"/><rect x="45.16" y="118.44" width="31.68" height="2.5" rx="1.25" fill="#8e949b" opacity="0.45"/><rect x="45.16" y="125.98" width="23.76" height="2.5" rx="1.25" fill="#8e949b" opacity="0.45"/></g><g transform="rotate(5.0064530595898304 147.0 168.0)" opacity="0.4027157484082333"><rect x="125" y="139" width="44" height="58" rx="3.5" fill="url(#glass)" stroke="#3a4148" stroke-width="1.5"/><circle cx="136.0" cy="150.6" r="5.3" fill="#8e949b" opacity=".8"/><rect x="144.8" y="147.12" width="18.48" height="3" rx="1.5" fill="#8e949b" opacity="0.9"/><rect x="131.16" y="163.36" width="31.68" height="2.5" rx="1.25" fill="#8e949b" opacity="0.45"/><rect x="131.16" y="170.9" width="23.76" height="2.5" rx="1.25" fill="#8e949b" opacity="0.45"/><rect x="131.16" y="178.44" width="31.68" height="2.5" rx="1.25" fill="#8e949b" opacity="0.45"/><rect x="131.16" y="185.98000000000002" width="23.76" height="2.5" rx="1.25" fill="#8e949b" opacity="0.45"/></g><g transform="rotate(0.8345235737988475 117.0 266.0)" opacity="0.6094381496705216"><rect x="95" y="237" width="44" height="58" rx="3.5" fill="url(#glass)" stroke="#3a4148" stroke-width="1.5"/><circle cx="106.0" cy="248.6" r="5.3" fill="#8e949b" opacity=".8"/><rect x="114.8" y="245.12" width="18.48" height="3" rx="1.5" fill="#8e949b" opacity="0.9"/><rect x="101.16" y="261.36" width="31.68" height="2.5" rx="1.25" fill="#8e949b" opacity="0.45"/><rect x="101.16" y="268.9" width="23.76" height="2.5" rx="1.25" fill="#8e949b" opacity="0.45"/><rect x="101.16" y="276.44" width="31.68" height="2.5" rx="1.25" fill="#8e949b" opacity="0.45"/><rect x="101.16" y="283.98" width="23.76" height="2.5" rx="1.25" fill="#8e949b" opacity="0.45"/></g><g transform="rotate(9.296288866325426 123.0 65.0)" opacity="0.5568848540259611"><rect x="101" y="36" width="44" height="58" rx="3.5" fill="url(#glass)" stroke="#3a4148" stroke-width="1.5"/><circle cx="112.0" cy="47.6" r="5.3" fill="#8e949b" opacity=".8"/><rect x="120.8" y="44.120000000000005" width="18.48" height="3" rx="1.5" fill="#8e949b" opacity="0.9"/><rect x="107.16" y="60.36" width="31.68" height="2.5" rx="1.25" fill="#8e949b" opacity="0.45"/><rect x="107.16" y="67.9" width="23.76" height="2.5" rx="1.25" fill="#8e949b" opacity="0.45"/><rect x="107.16" y="75.44" width="31.68" height="2.5" rx="1.25" fill="#8e949b" opacity="0.45"/><rect x="107.16" y="82.98" width="23.76" height="2.5" rx="1.25" fill="#8e949b" opacity="0.45"/></g><g transform="rotate(13.158980531242044 67.0 57.0)" opacity="0.5154621810329134"><rect x="45" y="28" width="44" height="58" rx="3.5" fill="url(#glass)" stroke="#3a4148" stroke-width="1.5"/><circle cx="56.0" cy="39.6" r="5.3" fill="#8e949b" opacity=".8"/><rect x="64.8" y="36.120000000000005" width="18.48" height="3" rx="1.5" fill="#8e949b" opacity="0.9"/><rect x="51.16" y="52.36" width="31.68" height="2.5" rx="1.25" fill="#8e949b" opacity="0.45"/><rect x="51.16" y="59.900000000000006" width="23.76" height="2.5" rx="1.25" fill="#8e949b" opacity="0.45"/><rect x="51.16" y="67.44" width="31.68" height="2.5" rx="1.25" fill="#8e949b" opacity="0.45"/><rect x="51.16" y="74.98" width="23.76" height="2.5" rx="1.25" fill="#8e949b" opacity="0.45"/></g><g transform="rotate(7.708661410003291 130.0 269.0)" opacity="0.672384533654356"><rect x="108" y="240" width="44" height="58" rx="3.5" fill="url(#glass)" stroke="#3a4148" stroke-width="1.5"/><circle cx="119.0" cy="251.6" r="5.3" fill="#8e949b" opacity=".8"/><rect x="127.8" y="248.12" width="18.48" height="3" rx="1.5" fill="#8e949b" opacity="0.9"/><rect x="114.16" y="264.36" width="31.68" height="2.5" rx="1.25" fill="#8e949b" opacity="0.45"/><rect x="114.16" y="271.9" width="23.76" height="2.5" rx="1.25" fill="#8e949b" opacity="0.45"/><rect x="114.16" y="279.44" width="31.68" height="2.5" rx="1.25" fill="#8e949b" opacity="0.45"/><rect x="114.16" y="286.98" width="23.76" height="2.5" rx="1.25" fill="#8e949b" opacity="0.45"/></g><g transform="rotate(-1.993641982172619 81.0 249.0)" opacity="0.6774553525965823"><rect x="59" y="220" width="44" height="58" rx="3.5" fill="url(#glass)" stroke="#3a4148" stroke-width="1.5"/><circle cx="70.0" cy="231.6" r="5.3" fill="#8e949b" opacity=".8"/><rect x="78.8" y="228.12" width="18.48" height="3" rx="1.5" fill="#8e949b" opacity="0.9"/><rect x="65.16" y="244.36" width="31.68" height="2.5" rx="1.25" fill="#8e949b" opacity="0.45"/><rect x="65.16" y="251.9" width="23.76" height="2.5" rx="1.25" fill="#8e949b" opacity="0.45"/><rect x="65.16" y="259.44" width="31.68" height="2.5" rx="1.25" fill="#8e949b" opacity="0.45"/><rect x="65.16" y="266.98" width="23.76" height="2.5" rx="1.25" fill="#8e949b" opacity="0.45"/></g><g transform="rotate(-13.10512103277592 154.0 73.0)" opacity="0.425945429431598"><rect x="132" y="44" width="44" height="58" rx="3.5" fill="url(#glass)" stroke="#3a4148" stroke-width="1.5"/><circle cx="143.0" cy="55.6" r="5.3" fill="#8e949b" opacity=".8"/><rect x="151.8" y="52.120000000000005" width="18.48" height="3" rx="1.5" fill="#8e949b" opacity="0.9"/><rect x="138.16" y="68.36" width="31.68" height="2.5" rx="1.25" fill="#8e949b" opacity="0.45"/><rect x="138.16" y="75.9" width="23.76" height="2.5" rx="1.25" fill="#8e949b" opacity="0.45"/><rect x="138.16" y="83.44" width="31.68" height="2.5" rx="1.25" fill="#8e949b" opacity="0.45"/><rect x="138.16" y="90.98" width="23.76" height="2.5" rx="1.25" fill="#8e949b" opacity="0.45"/></g><g transform="rotate(4.559338471204942 167.0 158.0)" opacity="0.45535916944892685"><rect x="145" y="129" width="44" height="58" rx="3.5" fill="url(#glass)" stroke="#3a4148" stroke-width="1.5"/><circle cx="156.0" cy="140.6" r="5.3" fill="#8e949b" opacity=".8"/><rect x="164.8" y="137.12" width="18.48" height="3" rx="1.5" fill="#8e949b" opacity="0.9"/><rect x="151.16" y="153.36" width="31.68" height="2.5" rx="1.25" fill="#8e949b" opacity="0.45"/><rect x="151.16" y="160.9" width="23.76" height="2.5" rx="1.25" fill="#8e949b" opacity="0.45"/><rect x="151.16" y="168.44" width="31.68" height="2.5" rx="1.25" fill="#8e949b" opacity="0.45"/><rect x="151.16" y="175.98000000000002" width="23.76" height="2.5" rx="1.25" fill="#8e949b" opacity="0.45"/></g><g transform="rotate(-5.367222404273518 98.0 145.0)" opacity="0.5547759375918772"><rect x="76" y="116" width="44" height="58" rx="3.5" fill="url(#glass)" stroke="#3a4148" stroke-width="1.5"/><circle cx="87.0" cy="127.6" r="5.3" fill="#8e949b" opacity=".8"/><rect x="95.8" y="124.12" width="18.48" height="3" rx="1.5" fill="#8e949b" opacity="0.9"/><rect x="82.16" y="140.36" width="31.68" height="2.5" rx="1.25" fill="#8e949b" opacity="0.45"/><rect x="82.16" y="147.9" width="23.76" height="2.5" rx="1.25" fill="#8e949b" opacity="0.45"/><rect x="82.16" y="155.44" width="31.68" height="2.5" rx="1.25" fill="#8e949b" opacity="0.45"/><rect x="82.16" y="162.98000000000002" width="23.76" height="2.5" rx="1.25" fill="#8e949b" opacity="0.45"/></g><g transform="rotate(6.551356918858801 110.0 275.0)" opacity="0.675130960420006"><rect x="88" y="246" width="44" height="58" rx="3.5" fill="url(#glass)" stroke="#3a4148" stroke-width="1.5"/><circle cx="99.0" cy="257.6" r="5.3" fill="#8e949b" opacity=".8"/><rect x="107.8" y="254.12" width="18.48" height="3" rx="1.5" fill="#8e949b" opacity="0.9"/><rect x="94.16" y="270.36" width="31.68" height="2.5" rx="1.25" fill="#8e949b" opacity="0.45"/><rect x="94.16" y="277.9" width="23.76" height="2.5" rx="1.25" fill="#8e949b" opacity="0.45"/><rect x="94.16" y="285.44" width="31.68" height="2.5" rx="1.25" fill="#8e949b" opacity="0.45"/><rect x="94.16" y="292.98" width="23.76" height="2.5" rx="1.25" fill="#8e949b" opacity="0.45"/></g><g transform="rotate(6.165847517850658 150.0 297.0)" opacity="0.4070848676898744"><rect x="128" y="268" width="44" height="58" rx="3.5" fill="url(#glass)" stroke="#3a4148" stroke-width="1.5"/><circle cx="139.0" cy="279.6" r="5.3" fill="#8e949b" opacity=".8"/><rect x="147.8" y="276.12" width="18.48" height="3" rx="1.5" fill="#8e949b" opacity="0.9"/><rect x="134.16" y="292.36" width="31.68" height="2.5" rx="1.25" fill="#8e949b" opacity="0.45"/><rect x="134.16" y="299.9" width="23.76" height="2.5" rx="1.25" fill="#8e949b" opacity="0.45"/><rect x="134.16" y="307.44" width="31.68" height="2.5" rx="1.25" fill="#8e949b" opacity="0.45"/><rect x="134.16" y="314.98" width="23.76" height="2.5" rx="1.25" fill="#8e949b" opacity="0.45"/></g><g transform="rotate(10 172.0 279.0)" opacity="0.95"><rect x="150" y="250" width="44" height="58" rx="3.5" fill="url(#glass)" stroke="#ef6b5b" stroke-width="1.5"/><circle cx="161.0" cy="261.6" r="5.3" fill="#ef6b5b" opacity=".8"/><rect x="169.8" y="258.12" width="18.48" height="3" rx="1.5" fill="#ef6b5b" opacity="0.9"/><rect x="156.16" y="274.36" width="31.68" height="2.5" rx="1.25" fill="#ef6b5b" opacity="0.45"/><rect x="156.16" y="281.9" width="23.76" height="2.5" rx="1.25" fill="#ef6b5b" opacity="0.45"/><rect x="156.16" y="289.44" width="31.68" height="2.5" rx="1.25" fill="#ef6b5b" opacity="0.45"/><rect x="156.16" y="296.98" width="23.76" height="2.5" rx="1.25" fill="#ef6b5b" opacity="0.45"/></g><circle cx="192" cy="252" r="11" fill="#ef6b5b"/><text x="192" y="257" font-family="-apple-system, 'Segoe UI', Helvetica, Arial, sans-serif" font-size="15" font-weight="700" fill="#121417" text-anchor="middle">!</text><path d="M200 60 C 250 60, 250 70, 300 70" fill="none" stroke="#f2a93b" stroke-width="1.5" opacity=".5" stroke-dasharray="4 5"/><path d="M200 130 C 250 130, 250 70, 300 70" fill="none" stroke="#f2a93b" stroke-width="1.5" opacity=".5" stroke-dasharray="4 5"/><path d="M200 200 C 250 200, 250 150, 300 150" fill="none" stroke="#8e949b" stroke-width="1.5" opacity=".5" stroke-dasharray="4 5"/><path d="M200 110 C 250 110, 250 150, 300 150" fill="none" stroke="#8e949b" stroke-width="1.5" opacity=".5" stroke-dasharray="4 5"/><path d="M200 240 C 250 240, 250 230, 300 230" fill="none" stroke="#8e949b" stroke-width="1.5" opacity=".5" stroke-dasharray="4 5"/><path d="M200 170 C 250 170, 250 230, 300 230" fill="none" stroke="#8e949b" stroke-width="1.5" opacity=".5" stroke-dasharray="4 5"/><rect x="300" y="34" width="240" height="68" rx="12" fill="url(#glass)" stroke="#f2a93b" stroke-width="1.5" filter="url(#shadow)"/><text x="322" y="77" font-family="ui-monospace, 'SFMono-Regular', Consolas, 'Liberation Mono', Menlo, monospace" font-size="22" font-weight="700" fill="#f2a93b">1</text><circle cx="360" cy="68" r="15" fill="#f2a93b" opacity=".85"/><rect x="386" y="54" width="90" height="7" rx="3.5" fill="#eeeae3" opacity="0.85"/><rect x="386" y="72" width="124" height="6" rx="3.0" fill="#2a2f35" opacity="1"/><rect x="386" y="72" width="112.84" height="6" rx="3.0" fill="#f2a93b" opacity="1"/><text x="526" y="62" font-family="ui-monospace, 'SFMono-Regular', Consolas, 'Liberation Mono', Menlo, monospace" font-size="14" font-weight="700" fill="#f2a93b" text-anchor="end">91%</text><rect x="300" y="114" width="240" height="68" rx="12" fill="url(#glass)" stroke="#3a4148" stroke-width="1.5" filter="url(#shadow)"/><text x="322" y="157" font-family="ui-monospace, 'SFMono-Regular', Consolas, 'Liberation Mono', Menlo, monospace" font-size="22" font-weight="700" fill="#3cc2b0">2</text><circle cx="360" cy="148" r="15" fill="#3cc2b0" opacity=".85"/><rect x="386" y="134" width="90" height="7" rx="3.5" fill="#eeeae3" opacity="0.85"/><rect x="386" y="152" width="124" height="6" rx="3.0" fill="#2a2f35" opacity="1"/><rect x="386" y="152" width="105.4" height="6" rx="3.0" fill="#3cc2b0" opacity="1"/><text x="526" y="142" font-family="ui-monospace, 'SFMono-Regular', Consolas, 'Liberation Mono', Menlo, monospace" font-size="14" font-weight="700" fill="#3cc2b0" text-anchor="end">85%</text><rect x="300" y="194" width="240" height="68" rx="12" fill="url(#glass)" stroke="#3a4148" stroke-width="1.5" filter="url(#shadow)"/><text x="322" y="237" font-family="ui-monospace, 'SFMono-Regular', Consolas, 'Liberation Mono', Menlo, monospace" font-size="22" font-weight="700" fill="#3cc2b0">3</text><circle cx="360" cy="228" r="15" fill="#3cc2b0" opacity=".85"/><rect x="386" y="214" width="90" height="7" rx="3.5" fill="#eeeae3" opacity="0.85"/><rect x="386" y="232" width="124" height="6" rx="3.0" fill="#2a2f35" opacity="1"/><rect x="386" y="232" width="97.96" height="6" rx="3.0" fill="#3cc2b0" opacity="1"/><text x="526" y="222" font-family="ui-monospace, 'SFMono-Regular', Consolas, 'Liberation Mono', Menlo, monospace" font-size="14" font-weight="700" fill="#3cc2b0" text-anchor="end">79%</text><g filter="url(#glow)"><circle cx="300" cy="38" r="13" fill="#f2a93b"/><path d="M294 38 L299 43 L307 33" fill="none" stroke="#121417" stroke-width="3" stroke-linecap="round" stroke-linejoin="round"/></g></g>
    </g>
    <g transform="translate(0 0.0)">
      <text x="84" y="92" font-family="ui-monospace, 'SFMono-Regular', Consolas, 'Liberation Mono', Menlo, monospace" font-size="16" letter-spacing="4" fill="#f2a93b">AUTOMATION · 02/03</text>
      <text x="80" y="160" font-family="-apple-system, 'Segoe UI', Helvetica, Arial, sans-serif" font-size="56" font-weight="700" fill="#eeeae3">AI CV</text>
      <text x="80" y="222" font-family="-apple-system, 'Segoe UI', Helvetica, Arial, sans-serif" font-size="56" font-weight="700" fill="#f2a93b">screening</text>
      <text x="84" y="268" font-family="ui-monospace, 'SFMono-Regular', Consolas, 'Liberation Mono', Menlo, monospace" font-size="19" fill="#8e949b">Folder of CVs → ranked shortlist</text>
      <rect x="84" y="296" width="147" height="30" rx="15" fill="#f2a93b" fill-opacity=".08" stroke="#f2a93b" stroke-opacity=".45" stroke-width="1.5"/><text x="157" y="316" font-family="ui-monospace, 'SFMono-Regular', Consolas, 'Liberation Mono', Menlo, monospace" font-size="15" fill="#eeeae3" opacity=".85" text-anchor="middle">Claude Cowork</text><rect x="241" y="296" width="147" height="30" rx="15" fill="#f2a93b" fill-opacity=".08" stroke="#f2a93b" stroke-opacity=".45" stroke-width="1.5"/><text x="314" y="316" font-family="ui-monospace, 'SFMono-Regular', Consolas, 'Liberation Mono', Menlo, monospace" font-size="15" fill="#eeeae3" opacity=".85" text-anchor="middle">prompt design</text><rect x="398" y="296" width="70" height="30" rx="15" fill="#f2a93b" fill-opacity=".08" stroke="#f2a93b" stroke-opacity=".45" stroke-width="1.5"/><text x="433" y="316" font-family="ui-monospace, 'SFMono-Regular', Consolas, 'Liberation Mono', Menlo, monospace" font-size="15" fill="#eeeae3" opacity=".85" text-anchor="middle">Excel</text>
    </g>
    <rect x="0" y="395" width="1280" height="5" fill="#f2a93b"/>
  </g>
</svg>
